PathFileType	4	(X/Y/Z)	Patient4_TMGait_0pt4_02_right_35.trc.trc
DataRate	CameraRate	NumFrames	NumMarkers	Units	OrigDataRate	OrigDataStartFrame	OrigNumFrames
72.164948453608	72.164948453608	6	33	mm	72.164948453608	89	       141
Frame#	Time	Sacral			L.Shoulder			Chest			R.Shoulder			Neck			R.ASIS			L.ASIS			R.Thigh.Superior			R.Thigh.Lateral			R.Thigh.Inferior			R.Patella			L.Thigh.Superior			L.Thigh.Lateral			L.Thigh.Inferior			L.Patella			L.Shank.Superior			L.Shank.Lateral			L.Shank.Inferior			R.Shank.Superior			R.Shank.Lateral			R.Shank.Inferior			R.Heel			R.Midfoot.Superior			R.Midfoot.Lateral			R.Toe			L.Heel			L.Midfoot.Lateral			L.Midfoot.Superior			L.Toe			L.Elbow			L.Wrist			R.Elbow			R.Wrist			
		X1	Y1	Z1	X2	Y2	Z2	X3	Y3	Z3	X4	Y4	Z4	X5	Y5	Z5	X6	Y6	Z6	X7	Y7	Z7	X8	Y8	Z8	X9	Y9	Z9	X10	Y10	Z10	X11	Y11	Z11	X12	Y12	Z12	X13	Y13	Z13	X14	Y14	Z14	X15	Y15	Z15	X16	Y16	Z16	X17	Y17	Z17	X18	Y18	Z18	X19	Y19	Z19	X20	Y20	Z20	X21	Y21	Z21	X22	Y22	Z22	X23	Y23	Z23	X24	Y24	Z24	X25	Y25	Z25	X26	Y26	Z26	X27	Y27	Z27	X28	Y28	Z28	X29	Y29	Z29	X30	Y30	Z30	X31	Y31	Z31	X32	Y32	Z32	X33	Y33	Z33	

89	47.329428571429	830.265378403614	1003.430225476866	464.050254178941	974.034927787814	1437.266342192160	274.695660062417	1095.936277786109	1369.966788414897	422.481247454687	1030.566074766150	1436.829126921002	606.501041303500	972.451199033497	1496.595984707055	432.961674123855	1066.742700437226	944.129543352553	562.518189015192	1032.264533139663	961.741992246197	289.887963926399	1082.584966357758	732.926482487706	546.448426598932	990.789043173014	632.868000994562	616.271979952295	1061.213556271556	567.157592395171	541.535392708316	1048.336481779558	467.287483905843	560.198354505323	1100.507844570422	761.311453125793	313.582494411254	1022.112854169960	636.002111576624	256.720893033693	1121.695568286587	567.970950235816	309.246217597962	1130.360490460816	497.145990588588	316.408866711918	1103.978219969692	422.588138344611	309.730017541551	1013.133330717112	307.282134093622	262.252945682957	1072.135458787096	195.414748342731	326.010749906985	985.249518441503	393.997689896180	568.630195801271	878.880576087151	328.953719955192	633.958829130604	885.664285659100	220.036969462503	579.918587034510	702.711702849916	98.900639334934	558.994822794115	881.791375648541	104.126948959594	589.091998264754	782.644368675387	63.796049154002	628.047778873862	983.527580724206	36.154824271384	609.001422349563	951.570889366010	38.578646936040	373.536649825000	1019.315216897104	35.425397692655	287.543191188351	1104.466336003949	97.194883550612	309.420194824373	1230.716235711999	44.657626885180	271.467578787505	937.069738710287	1088.867430622742	147.780729177402	1060.684704842567	856.858550609555	128.173157745687	1090.553293454535	1100.605129018553	738.401939289204	1330.057273990056	1014.366216891008	710.031913617593	
90	47.343285714286	829.253711397912	1004.144218635197	459.786946327553	976.212996626301	1437.656696036463	270.495098379223	1096.358892812756	1370.216712197032	419.657452308050	1029.249137956220	1437.460197263735	602.885805760088	972.911968619600	1497.172589824121	428.630781825354	1064.979846077035	944.884300963968	560.200604136403	1032.696018145870	961.900065538796	287.323451903525	1085.864013435004	734.848843318595	544.732361290343	996.699788788933	633.040101752384	614.523255576352	1069.435470356515	568.389143532655	540.358301936304	1057.922910825589	466.998370184842	560.158318225322	1098.982328658353	760.520159329736	310.801386444164	1019.049834855848	636.180248564958	254.346988008643	1117.695766031213	567.230203436146	307.172561126757	1125.607076712826	496.587691882533	314.564282648159	1099.169343994592	422.105255174388	308.023506854729	1008.087336869549	306.808538604618	260.701556599869	1066.766078483111	195.109164097879	325.227399691919	992.627146282758	394.581428825034	568.209472927819	884.073666671779	333.044251879046	633.271520279748	888.093116327753	223.733043393113	580.068079955302	701.669279162316	109.541583806248	559.204892017322	880.375142560924	106.494646118371	589.183274539838	779.702457761685	70.559478885699	627.982055335215	978.284320708998	35.418874572439	609.093271714507	945.922588584211	38.537052134895	373.426925739809	1013.646100977456	35.260430433112	287.383430342391	1098.841582099727	96.996251721427	309.258992118464	1225.145897632433	44.394956598071	271.452136402163	944.820067406199	1089.880396040816	140.408206782397	1078.707927372048	863.546366856158	120.399697432351	1080.913054423062	1099.937364389489	735.662149716838	1314.112429268307	995.674366332061	710.483739431658	
91	47.357142857143	828.037051772260	1004.841180953737	455.643152916718	978.502866108372	1437.943591223386	266.408827695919	1096.751658301324	1370.373800842398	417.035486189333	1027.800687955106	1438.071295460229	599.388205119663	973.413500251022	1497.688599375700	424.420085874808	1063.075014332982	945.612489750518	558.109174782048	1032.982411766454	962.059600456187	284.981030151630	1089.527067507463	737.129731841962	542.995277805949	1003.483944676525	633.364425640201	612.843240864900	1078.549873379399	570.022772936784	539.150069186247	1068.543826364695	467.138868829084	559.979290543829	1097.222678966052	759.755677616034	308.260131621191	1015.876332819359	636.468679225113	251.983083897070	1113.488395517342	566.549147575832	305.218309267219	1120.614503154681	496.067621081916	312.722421521351	1094.152720563424	421.691351633829	306.292025717076	1002.885809922450	306.369276951942	259.144925649327	1061.326155087472	194.856270355718	324.390989846020	1001.092529533962	395.505558692300	567.695014689568	890.436917333543	337.646298767880	632.550678262995	891.410517514041	228.071666919061	580.117784373926	701.628612610288	121.578343849268	559.311075021552	879.600274756354	109.629225418963	589.240201362741	777.430537569996	78.541543347611	627.862456318442	973.256979355060	34.608817383613	609.205126207357	940.299160457521	38.514126846251	373.294592551813	1008.004696249578	35.112874947421	287.207303555744	1093.233352230947	96.826219499416	309.057684576700	1219.595848385065	44.184582572175	271.414404561836	952.839066996825	1091.010406873739	133.067562251149	1096.657580263299	870.749411816357	112.947602500135	1070.904677818298	1099.302914368529	732.800343047375	1296.304227823970	977.303515337997	710.923617926984	
92	47.371000000000	826.651643066082	1005.496009412411	451.654218433494	980.857669959531	1438.109335512978	262.485758130546	1097.090837867114	1370.436410591302	414.643709091176	1026.213451308702	1438.651576899346	596.045410259142	973.948209965718	1498.134893768744	420.370812152302	1061.069281205091	946.306063032151	556.254680942488	1033.125553755183	962.221044467808	282.874824936288	1093.445063057759	739.777579356284	541.211562083712	1010.950744146390	633.926159377005	611.213725071204	1088.294555601761	572.117219025001	537.879699975597	1079.947155023906	467.796713024995	559.599901110001	1095.281463219450	759.031893259326	305.914294236521	1012.594869673270	636.824851881985	249.680019918466	1109.136962289713	565.916409999418	303.358666157063	1115.469403586082	495.585751675761	310.917595313716	1089.006597151814	421.338397327155	304.582056085010	997.593169265331	305.974110200693	257.634966172069	1055.851295786792	194.649897078619	323.536448541515	1010.438402090516	396.832678232894	567.048823000926	897.809922019429	342.733427819042	631.761530255077	895.545255586053	233.033945500770	580.026772526799	702.643389850665	134.768591602550	559.282377886322	879.522499694629	113.577685354646	589.250554262601	775.939641779987	87.627495609400	627.662837531907	968.596350771906	33.806198149964	609.297982383495	934.701965298235	38.507448158632	373.146370265199	1002.391366549185	34.986058399845	287.021569390081	1087.644361498124	96.684047513412	308.828047859892	1214.064769912135	44.019032449856	271.352494061524	961.125478514348	1092.238876810152	125.823890258839	1114.461563163905	878.392176503868	105.870604811861	1060.547133636785	1098.698407742104	729.839581423990	1276.681885995361	959.447698874027	711.320810611856	
93	47.384857142857	825.151683384840	1006.089801436721	447.857625598877	983.232019895126	1438.153510460128	258.771409263782	1097.356737943190	1370.416914428685	412.504785471750	1024.484054323208	1439.197303438603	592.891787076493	974.504762637461	1498.514167077683	416.519236738703	1059.008725878814	946.969089691615	554.637861952088	1033.134665130116	962.387794519603	281.008338853172	1097.474319309363	742.786951988379	539.368881803255	1018.869177900443	634.804655463460	609.621829280069	1098.375822732140	574.713962920175	536.528675528154	1091.848204203905	469.038297247338	558.983404484526	1093.216857515278	758.349737222703	303.724871110060	1009.221226992387	637.205929382517	247.490223660731	1104.702281295085	565.317427619877	301.592143708357	1110.250743999361	495.137936724465	309.199702342519	1083.802390722263	421.035937205100	302.949542752578	992.271020180510	305.628942968571	256.225443890855	1050.373733125249	194.481936054118	322.705153654098	1020.424774220275	398.608080152599	566.251813929333	905.991254214566	348.243272222678	630.880718389049	900.414611914100	238.549643112280	579.772234026259	704.737049353024	148.739141969422	559.107176097254	880.207057055066	118.302100612010	589.193692674388	775.347204691325	97.581371209049	627.363464028265	964.503461974308	33.121605124540	609.316204839047	929.127994247407	38.512926173488	372.990792679805	996.802520674246	34.881767850428	286.834525519575	1082.073731566378	96.566869806583	308.585557127900	1208.547874320914	43.887676081424	271.269109895637	969.654443565720	1093.560491828660	118.753132209411	1132.042457799891	886.411710059670	99.218380000240	1049.871156269055	1098.137956276622	726.798506106967	1255.351353575209	942.324201550083	711.616026253402	
94	47.398714285714	823.599218905552	1006.614610120986	444.288002647262	985.586769556483	1438.094288313887	255.305524905267	1097.537219780368	1370.340264154557	410.634207762737	1022.617437541658	1439.713051963789	589.956475353778	975.070642250245	1498.840016192225	412.897387922264	1056.937040330140	947.616061058784	553.245961563796	1033.024519548128	962.567311982536	279.372460231390	1101.468852741333	746.136573763499	537.469295641803	1026.990842539398	636.061704238360	608.063259909608	1108.495961732759	577.830686710246	535.092659281728	1103.955096938900	470.902246830221	558.123007703338	1091.087729840930	757.701164056798	301.671443690086	1005.786291699116	637.576110178756	245.463321261604	1100.238095435650	564.737854077124	299.942875931635	1105.022598886167	494.717247092417	307.630160567450	1078.598347349189	420.773517659814	301.454023499289	986.972923008342	305.336576734220	254.964837934695	1044.919816303448	194.344408302235	321.940340533966	1030.802814588265	400.852216875785	565.306872881872	914.761920111480	354.074763429240	629.901838519409	905.939200977341	244.493410459597	579.354795282762	707.905513284376	163.004036305573	558.799857547033	881.732991436956	123.667884849430	589.044026463265	775.775766725029	108.051322925400	626.958404716620	961.230881596316	32.679834782585	609.195512193461	923.571213377075	38.525824636481	372.836358126943	991.232277914596	34.800525684351	286.654351799142	1076.517955000735	96.471082461283	308.346618385541	1203.038638092612	43.779901341698	271.170034713785	978.377453555066	1094.983267874973	111.937329945686	1149.318470898495	894.761983578311	93.035932476983	1038.913380685222	1097.652381121321	723.689933087686	1232.475572258080	926.165445839285	711.727689225901	
